<?xml version="1.0" encoding="utf-8"?>
<!-- Generator: Adobe Illustrator 21.1.0, SVG Export Plug-In . SVG Version: 6.00 Build 0)  -->
<!DOCTYPE svg PUBLIC "-//W3C//DTD SVG 1.1//EN" "http://www.w3.org/Graphics/SVG/1.1/DTD/svg11.dtd">
<svg version="1.1" id="Layer_1" xmlns="http://www.w3.org/2000/svg" xmlns:xlink="http://www.w3.org/1999/xlink" x="0px" y="0px"
	 viewBox="0 0 32 32" style="enable-background:new 0 0 32 32;" xml:space="preserve">
<title>instagram</title>

<style>
.myfill { fill:#FFF }
</style>

<circle cx="16" cy="15.9" r="2.4" class="myfill"/>
<path d="M21.1,14.8h-1.5c0.1,0.4,0.2,0.7,0.2,1.1c-0.1,2.1-1.9,3.7-4,3.6c-2-0.1-3.5-1.7-3.6-3.6c0-0.4,0.1-0.8,0.2-1.1h-1.6v5.5
	c0,0.5,0.4,0.9,0.9,0.9h8.5c0.5,0,0.9-0.4,0.9-0.9l0,0V14.8z" class="myfill"/>
<path d="M19.2,13.2h1.5c0.2,0,0.4-0.2,0.4-0.4v-1.5c0-0.2-0.2-0.4-0.4-0.4h-1.5c-0.2,0-0.4,0.2-0.4,0.4l0,0v1.5
	C18.8,13.1,19,13.3,19.2,13.2z" class="myfill"/>
<path d="M16,2C8.3,2,2,8.3,2,16s6.3,14,14,14s14-6.3,14-14S23.7,2,16,2z M22.6,20.3c0,1.3-1,2.3-2.3,2.3h-8.5c-1.3,0-2.3-1-2.3-2.3
	v-8.5c0-1.3,1-2.3,2.3-2.3h8.5c1.3,0,2.3,1,2.3,2.3V20.3z" class="myfill"/>
</svg>
