<?xml version="1.0" encoding="utf-8"?>
<!-- Generator: Adobe Illustrator 21.1.0, SVG Export Plug-In . SVG Version: 6.00 Build 0)  -->
<!DOCTYPE svg PUBLIC "-//W3C//DTD SVG 1.1//EN" "http://www.w3.org/Graphics/SVG/1.1/DTD/svg11.dtd">
<svg version="1.1" id="Layer_1" xmlns="http://www.w3.org/2000/svg" xmlns:xlink="http://www.w3.org/1999/xlink" x="0px" y="0px"
	 viewBox="0 0 32 32" style="enable-background:new 0 0 32 32;" xml:space="preserve">
<title>twitter</title>

<style>
.myfill { fill:#FFF }
</style>

<path d="M16,2C8.3,2,2,8.3,2,16s6.3,14,14,14s14-6.3,14-14S23.7,2,16,2z M21.6,13.8c0,0.1,0,0.2,0,0.4c0,4.5-3.7,8.2-8.2,8.2
	c-1.6,0-3.1-0.4-4.4-1.3c1.5,0.2,3.1-0.2,4.3-1.2c-1.2,0-2.3-0.8-2.7-2c0,0,0.8,0.2,1.3-0.1c-1.4-0.3-2.3-1.5-2.3-2.8
	c0.4,0.2,0.8,0.3,1.3,0.4c-1.3-0.9-1.6-2.5-0.9-3.8c1.5,1.8,3.6,2.9,5.9,3c-0.4-1.6,0.6-3.1,2.2-3.4c1-0.2,2,0.1,2.7,0.8
	c0.6-0.1,1.3-0.4,1.8-0.7c-0.2,0.7-0.7,1.2-1.3,1.6c0.6-0.1,1.1-0.2,1.6-0.5C22.6,12.9,22.1,13.4,21.6,13.8z" class="myfill"/>
</svg>
